<svg width="18" height="18" viewBox="0 0 18 18" fill="none" xmlns="http://www.w3.org/2000/svg">
<path d="M9.00023 14.9998H15.7502M12.2822 2.7163C12.5808 2.41773 12.9857 2.25 13.408 2.25C13.8302 2.25 14.2352 2.41773 14.5337 2.7163C14.8323 3.01487 15 3.41981 15 3.84205C15 4.26429 14.8323 4.66923 14.5337 4.9678L5.52623 13.9761C5.3478 14.1545 5.12724 14.285 4.88498 14.3556L2.73098 14.9841C2.66644 15.0029 2.59803 15.004 2.53291 14.9873C2.46779 14.9706 2.40835 14.9368 2.36081 14.8892C2.31328 14.8417 2.27939 14.7822 2.26271 14.7171C2.24602 14.652 2.24715 14.5836 2.26598 14.5191L2.89448 12.3651C2.96514 12.1231 3.09566 11.9028 3.27398 11.7246L12.2822 2.7163Z" stroke="#B3B3B3" stroke-width="1.66667" stroke-linecap="round" stroke-linejoin="round"/>
</svg>
